<svg xmlns="http://www.w3.org/2000/svg" width="20.001" height="16" viewBox="0 0 20.001 16">
  <defs>
    <style>
      .cls-1 {
        fill: #fafafa;
      }
    </style>
  </defs>
  <path id="Icon" class="cls-1" d="M868,1502H852a2,2,0,0,1-2-2v-12a2,2,0,0,1,2-2h16a2,2,0,0,1,2,2v12A2,2,0,0,1,868,1502Zm-15.15-13.32a.849.849,0,0,0-.45,1.569l6.54,4.09a1.978,1.978,0,0,0,2.119,0l6.54-4.09a.849.849,0,1,0-.9-1.44L860,1493l-6.7-4.19A.863.863,0,0,0,852.85,1488.68Z" transform="translate(-850 -1486)"/>
</svg>
